<svg width="31" height="29" viewBox="0 0 31 29" fill="none" xmlns="http://www.w3.org/2000/svg">
<path d="M18.8001 0.0976372C18.3563 0.223437 16.5041 1.92359 15.558 3.07891C15.235 3.47759 14.7522 4.03351 14.5001 4.32766C13.9969 4.88266 12.5068 6.89916 12.174 7.45509C12.0516 7.69448 11.9859 7.96087 11.9823 8.23209C11.9808 8.48124 11.9437 8.72878 11.8723 8.96654C11.7944 9.18116 11.7313 9.40124 11.6832 9.62514C11.6433 9.82494 11.5057 10.3707 11.3815 10.8323C11.2572 11.2938 11.1197 11.8609 11.0691 12.0912C11.0185 12.3215 10.8978 12.8155 10.7975 13.1938C10.596 13.9495 10.6156 13.9338 9.75024 13.7284C9.47778 13.6655 9.05533 13.5712 8.80328 13.5083C8.08795 13.351 8.04801 13.278 8.27078 12.6166C8.59294 11.6509 8.482 11.378 7.73828 11.3669C7.31583 11.3567 7.31583 11.3567 7.17471 11.8812C6.90846 12.8469 6.87208 12.9098 6.57033 12.8469C6.41945 12.8155 5.95618 12.6897 5.54349 12.5639C4.36489 12.2179 3.7605 12.1939 3.28746 12.4797C2.81443 12.7655 2.58723 13.1734 2.27571 14.4536C2.14525 14.9994 1.93314 15.8291 1.81244 16.2907C1.69174 16.7523 1.47696 17.5505 1.34828 18.075C1.21959 18.5995 1.00659 19.3765 0.895652 19.8066C0.784714 20.2367 0.653364 20.7621 0.613427 20.961C0.532664 21.331 0.462552 21.602 0.159914 22.5881C-0.162248 23.6269 0.0090394 24.5093 0.613427 24.9709C0.805127 25.118 1.24799 25.3168 1.61009 25.4223C1.97219 25.5277 2.46653 25.6637 2.71858 25.7368C2.97063 25.8099 3.73565 26.0309 4.42968 26.2095C6.51441 26.7645 6.4443 26.7238 6.64843 27.2899C6.88006 27.9198 6.991 28.0669 7.46404 28.3185C7.97701 28.5913 8.41011 28.571 8.91421 28.2556C9.10089 28.1384 9.26304 27.9833 9.39097 27.7995C9.51891 27.6156 9.61003 27.4068 9.65889 27.1855C9.70776 26.9642 9.71337 26.7349 9.67539 26.5113C9.63741 26.2876 9.55662 26.0743 9.43784 25.8839C9.26034 25.611 9.22573 25.4537 9.27631 25.2123C9.63131 23.7323 10.0014 22.1792 10.1328 21.6973C10.2215 21.3819 10.4141 20.6262 10.5765 20.0175C10.7389 19.4089 10.9084 18.7688 10.959 18.6004C11.0602 18.2757 11.2918 17.3517 11.543 16.2879C11.6238 15.942 11.7649 15.4166 11.8456 15.1335C11.9264 14.8505 12.0773 14.2307 12.1873 13.7691C12.4793 12.5833 12.7819 11.4492 12.9728 10.799L13.1343 10.2532H13.5976C14.2117 10.2532 14.675 9.99051 15.1587 9.35041C15.3797 9.04609 15.8429 8.42541 16.1953 7.95459C16.5476 7.48376 16.86 7.10451 16.9008 7.10451C16.9417 7.10451 16.9807 8.24874 16.9807 9.65474C16.9807 11.0607 17.0419 12.5935 17.0916 13.0865L17.1857 13.9819L16.8307 14.6636C15.4409 17.2462 13.9108 21.3921 12.6719 25.8737C12.4704 26.6183 13.0145 27.6996 13.7289 27.9827C14.1017 28.1298 14.9714 28.1298 15.2377 27.9827C15.8589 27.6469 16.1039 27.2482 16.5174 25.8552C16.7482 25.0995 17.0606 24.1023 17.2221 23.6407C17.3836 23.1792 17.5771 22.5492 17.6659 22.2449C17.7854 21.8362 17.9267 21.4347 18.0892 21.0424C18.2294 20.6854 18.3909 20.2969 18.4309 20.1812C18.4708 20.0656 18.7939 19.321 19.1462 18.5236C19.7675 17.0751 19.992 16.718 20.0825 16.9909C20.4757 18.2082 21.2203 20.5697 21.4022 21.1784C21.6738 22.0812 22.4291 24.3798 22.8826 25.6915C23.376 27.1086 23.8393 27.5812 24.7463 27.5812C25.3205 27.5812 26.1157 27.1511 26.3873 26.6886C26.7601 26.0485 26.7503 25.5786 26.3376 24.3271C26.1362 23.7184 25.9347 23.0783 25.8841 22.9109C25.814 22.6269 25.3401 21.1469 24.2928 17.9252C24.0718 17.2638 23.7488 16.2454 23.5677 15.6682C23.3867 15.091 23.195 14.5249 23.1346 14.4092C23.0743 14.2936 23.0042 13.8006 22.9935 13.3066C22.9829 12.8127 22.9332 11.7341 22.8728 10.8933C22.7521 9.18206 22.7317 7.42919 22.8329 7.42919C22.8631 7.42919 23.1249 7.64934 23.4071 7.92221C23.8704 8.37361 24.5653 8.93971 25.8841 9.96924C26.4681 10.4206 27.9786 11.3752 28.3514 11.5223C28.7241 11.6694 29.1874 11.502 29.6604 11.0293L30.0429 10.6519L29.9923 9.61219C29.932 8.37361 29.9728 8.42634 28.4516 7.36629C26.2764 5.83356 24.8369 4.49046 23.3929 2.62196C22.3661 1.30014 21.6711 0.575863 21.1475 0.291888C20.6239 0.00791281 19.4142 -0.0929128 18.8001 0.0976372ZM6.9271 15.3148C7.1046 15.4998 7.06821 16.4165 6.84723 17.2666C6.76198 17.5594 6.69469 17.8575 6.64576 18.1592C6.64576 18.2323 7.18891 18.9149 7.85365 19.691C8.51839 20.4671 9.08284 21.1821 9.12278 21.2968C9.19289 21.528 8.92131 22.0109 8.72961 22.0109C8.64974 22.0109 8.23705 21.738 7.7933 21.4022C7.34955 21.0665 6.81705 20.6881 6.60494 20.5623C6.11149 20.258 6.05114 20.3107 5.70856 21.4235L5.44231 22.2421L5.78489 22.5881C6.1674 22.9581 6.21799 23.1764 5.97659 23.3854C5.84524 23.4909 5.64378 23.4594 4.74829 23.1653C3.4694 22.7453 3.33805 22.651 3.49958 22.2736C3.58833 22.0738 3.69039 22.0109 3.92203 22.0109C4.2646 22.0109 4.6267 21.6964 4.6267 21.381C4.65833 21.1083 4.70906 20.8384 4.77846 20.5734C4.87875 20.1738 4.89916 19.9435 4.82816 19.8695C4.75716 19.7955 4.05338 19.7335 3.23776 19.7021L1.75741 19.6494L1.78759 19.2794C1.79735 19.0796 1.84794 18.8807 1.89764 18.828C1.94734 18.7752 2.7239 18.5551 3.63004 18.3238C4.53618 18.0926 5.35179 17.8308 5.44231 17.7466C5.53284 17.6625 5.64378 17.4109 5.6846 17.2009C5.8053 16.5395 6.12835 15.6894 6.3591 15.4277C6.58985 15.1659 6.74605 15.1261 6.9271 15.3148Z" fill="#084981"/>
</svg>
